<?xml version="1.0" encoding="iso-8859-1"?>
<!-- Generator: Adobe Illustrator 24.0.2, SVG Export Plug-In . SVG Version: 6.00 Build 0)  -->
<svg fill="#FFFFFF" version="1.1" xmlns="http://www.w3.org/2000/svg" xmlns:xlink="http://www.w3.org/1999/xlink" x="0px" y="0px"
	 viewBox="0 0 64 64" style="enable-background:new 0 0 64 64;" xml:space="preserve">
<g id="&#x421;&#x43B;&#x43E;&#x439;_1">
	<path d="M48,7H16c-4.418,0-8,3.582-8,8v32c0,4.418,3.582,8,8,8h17V38h-6v-7h6v-5c0-7,4-11,10-11c3.133,0,5,1,5,1v6h-4
		c-2.86,0-4,2.093-4,4v5h7l-1,7h-6v17h8c4.418,0,8-3.582,8-8V15C56,10.582,52.418,7,48,7z"/>
</g>
<g id="&#x421;&#x43B;&#x43E;&#x439;_2">
</g>
</svg>