<svg xmlns="http://www.w3.org/2000/svg" version="1.1" xmlns:xlink="http://www.w3.org/1999/xlink" xmlns:svgjs="http://svgjs.dev/svgjs" width="1000" height="3000" preserveAspectRatio="none" viewBox="0 0 4000 9000">
    <g mask="url(&quot;#SvgjsMask1011&quot;)" fill="none">
        <path d="M142.86 0C580.39 225.82 568.43 263.19 1000 516.13C1421.53 763.19 1764 652.89 1849.06 1000C1945.82 1394.82 1613.16 1503.45 1363.64 2000C1188.63 2348.28 1232.95 2388.2 1000 2689.66C846.58 2888.2 590.91 2873.1 590.91 3000C590.91 3108.62 860.05 3004.98 1000 3160.71C1309.38 3504.98 1350.16 3547.47 1489.58 4000C1633.49 4467.12 1415.8 4544.32 1566.67 5000C1671.01 5315.16 1745.2 5541.67 2000 5541.67C2344.22 5541.67 2419.43 5307.12 2764.71 5000C2919.43 4862.37 2821.51 4739.96 3000 4652.17C3439.15 4436.17 3685.15 4282.9 4000 4392.41C4185.15 4456.81 4000 4696.2 4000 5000C4000 5393.44 4086.8 5433.01 4000 5786.89C3964.16 5933.01 3788.15 5851.29 3754.72 6000C3651.79 6457.84 3635.9 6550.4 3727.27 7000C3758.54 7153.85 3958.89 7056.15 4000 7206.9C4095.25 7556.15 4000 7603.45 4000 8000C4000 8225.49 4146.72 8446.9 4000 8450.98C3646.72 8460.79 3372.52 7890.79 3000 8027.78C2626.04 8165.3 2803.1 8548.19 2507.04 9000C2303.1 9311.23 2248.84 9553.85 2000 9553.85C1758.48 9553.85 1565.58 9320.23 1526.32 9000C1470.34 8543.31 1948.96 8381.93 1809.52 8000C1685.8 7661.15 1380.74 7558.44 1000 7558.44C722.25 7558.44 745.56 7778.41 492.54 8000C245.56 8216.3 148.24 8434.21 0 8434.21C-98.03 8434.21 0 8217.1 0 8000C0 7500 0 7500 0 7000C0 6824.33 -121.99 6744.02 0 6648.65C378.01 6353.11 510.2 6453.01 1000 6218.18C1186.67 6128.68 1352.94 6116.4 1352.94 6000C1352.94 5876.88 1168.64 5879.32 1000 5739.13C567.17 5379.32 549.6 5391.26 150 5000C49.6 4901.69 20.35 4895.67 0 4760C-54.65 4395.67 0 4380 0 4000C0 3500 0 3500 0 3000C0 2500 0 2500 0 2000C0 1500 0 1500 0 1000C0 500 -62.5 437.5 0 0C8.93 -62.5 80.39 -32.24 142.86 0" stroke="rgba(255, 255, 255, 1)" stroke-width="2"></path>
        <path d="M4000 481.48C3700.01 481.48 3113.64 128.14 3113.64 0C3113.64 -112.6 3712.82 -156 4000 0C4156 84.74 4143.19 481.48 4000 481.48" stroke="rgba(255, 255, 255, 1)" stroke-width="2"></path>
        <path d="M3371.43 2000C3371.43 1729.23 3807.34 1488.37 4000 1488.37C4121.62 1488.37 4000 1744.18 4000 2000C4000 2309.86 4129.64 2619.72 4000 2619.72C3815.35 2619.72 3371.43 2294.9 3371.43 2000" stroke="rgba(255, 255, 255, 1)" stroke-width="2"></path>
        <path d="M2878.79 10000C2878.79 9943.71 2924.89 9919.77 3000 9897.44C3485.49 9753.11 3622.58 9627.96 4000 9666.67C4122.58 9679.24 4000 9833.33 4000 10000C4000 10500 4000 10500 4000 11000C4000 11500 4219.51 11719.51 4000 12000C3828.21 12219.51 3362.11 12218.62 3217.39 12000C3031.13 11718.62 3394.8 11484.96 3338.03 11000C3286.1 10556.39 3190.82 10558.37 3000 10142.86C2961.2 10058.37 2878.79 10066.42 2878.79 10000" stroke="rgba(255, 255, 255, 1)" stroke-width="2"></path>
        <path d="M646.15 11000C659.09 10787.16 803.81 10666.67 1000 10666.67C1268.23 10666.67 1554.87 10749.48 1575 11000C1608.44 11416.15 1369.21 11544.23 1107.14 12000C1081.71 12044.23 1053.57 12000 1000 12000C959.46 12000 931.76 12036.27 918.92 12000C754.83 11536.27 618.55 11453.82 646.15 11000" stroke="rgba(255, 255, 255, 1)" stroke-width="2"></path>
        <path d="M354.84 1000C354.84 797.9 688 784.95 1000 784.95C1199.26 784.95 1377.36 832.86 1377.36 1000C1377.36 1340.38 1236.49 1800 1000 1800C725.23 1800 354.84 1305.42 354.84 1000" stroke="rgba(255, 255, 255, 1)" stroke-width="2"></path>
        <path d="M4000 172.84C3892.31 172.84 3681.82 46 3681.82 0C3681.82 -40.42 3896.91 -56 4000 0C4056 30.42 4051.4 172.84 4000 172.84" stroke="rgba(255, 255, 255, 1)" stroke-width="2"></path>
        <path d="M3728.57 2000C3728.57 1883.08 3916.8 1779.07 4000 1779.07C4052.52 1779.07 4000 1889.53 4000 2000C4000 2133.81 4055.98 2267.61 4000 2267.61C3920.27 2267.61 3728.57 2127.35 3728.57 2000" stroke="rgba(255, 255, 255, 1)" stroke-width="2"></path>
        <path d="M214.29 4000C263.09 3697.87 665.66 3607.14 1000 3607.14C1173.1 3607.14 1205.77 3782.74 1229.17 4000C1280.77 4479.17 1241.98 4520.11 1150 5000C1127.39 5117.94 1084.86 5195.65 1000 5195.65C897.36 5195.65 856.08 5123.39 775 5000C463.23 4525.56 150.59 4394.3 214.29 4000" stroke="rgba(255, 255, 255, 1)" stroke-width="2"></path>
        <path d="M3425 5000C3425 4838.36 3801.96 4708.86 4000 4708.86C4089.46 4708.86 4000 4854.43 4000 5000C4000 5188.52 4101.82 5377.05 4000 5377.05C3814.32 5377.05 3425 5172.45 3425 5000" stroke="rgba(255, 255, 255, 1)" stroke-width="2"></path>
        <path d="M2166.67 6000C2504.29 5697.04 2645.08 5531.25 3000 5531.25C3203.26 5531.25 3283.02 5757.27 3283.02 6000C3283.02 6304.14 3227.08 6392.18 3000 6625C2739.41 6892.18 2650.25 6806.29 2307.69 7000C2150.25 7089.03 2173.62 7159.44 2000 7190.48C1519.78 7276.33 1486.82 7291.73 1000 7233.77C686.82 7196.49 400 7136.08 400 7000C400 6855.56 680.78 6786.74 1000 6672.73C1480.78 6501.02 1596.79 6661.07 2000 6428.57C2180.12 6324.71 2004.29 6145.7 2166.67 6000" stroke="rgba(255, 255, 255, 1)" stroke-width="2"></path>
        <path d="M0 7600C30.49 7600 119.4 7817.11 119.4 8000C119.4 8069.74 35.94 8105.26 0 8105.26C-23.76 8105.26 0 8052.63 0 8000C0 7800 -29.21 7600 0 7600" stroke="rgba(255, 255, 255, 1)" stroke-width="2"></path>
        <path d="M1855.26 9000C1855.26 8816.54 1925.41 8607.14 2000 8607.14C2075.24 8607.14 2154.93 8817.89 2154.93 9000C2154.93 9098.94 2076.04 9169.23 2000 9169.23C1926.2 9169.23 1855.26 9097.58 1855.26 9000" stroke="rgba(255, 255, 255, 1)" stroke-width="2"></path>
        <path d="M3690.14 11000C3690.14 10663 3918.75 10333.33 4000 10333.33C4073.68 10333.33 4000 10666.67 4000 11000C4000 11379.31 4074.48 11758.62 4000 11758.62C3919.55 11758.62 3690.14 11375.64 3690.14 11000" stroke="rgba(255, 255, 255, 1)" stroke-width="2"></path>
    </g>
    <defs>
        <mask id="SvgjsMask1011">
            <rect width="4000" height="12000" fill="#ffffff"></rect>
        </mask>
    </defs>
</svg>